<?xml version="1.0" encoding="UTF-8" standalone="no"?>
<!DOCTYPE svg PUBLIC "-//W3C//DTD SVG 1.1//EN" "http://www.w3.org/Graphics/SVG/1.1/DTD/svg11.dtd">
<svg width="100%" height="100%" viewBox="0 0 1455 593" version="1.1" xmlns="http://www.w3.org/2000/svg" xmlns:xlink="http://www.w3.org/1999/xlink" xml:space="preserve" xmlns:serif="http://www.serif.com/" style="fill-rule:evenodd;clip-rule:evenodd;stroke-linejoin:round;stroke-miterlimit:2;">
    <g transform="matrix(1,0,0,1,-640.073,-894.276)">
        <path d="M1352.29,1348.36C1347.56,1350.9 1343.19,1353.54 1337.01,1354.86C1337.73,1368.34 1342.53,1386.57 1348.12,1399.17C1352.57,1398.25 1358.45,1395.55 1362.37,1392.66C1354.72,1383.69 1349.96,1363.56 1352.29,1348.36Z" style="fill:rgb(123,13,0);"/>
        <path d="M1283.09,1363.96C1294.58,1364.33 1305.05,1362.03 1315.55,1360.71C1321.95,1374.28 1325.56,1394.67 1326.42,1405.54C1318.48,1408.03 1308.1,1409.11 1300.59,1408.38C1302.43,1394.65 1292.68,1375 1283.09,1363.96Z" style="fill:rgb(123,13,0);"/>
        <g transform="matrix(1,0,0,1,12.7094,5.53807)">
            <path d="M1314.85,1400.31C1321.51,1399.13 1333.77,1395.81 1338.55,1393.63C1338.93,1393.98 1339.11,1394.72 1339.11,1395.07C1334.05,1397.43 1321.58,1400.61 1315.13,1401.82C1315.23,1400.99 1315.12,1400.8 1314.85,1400.31Z" style="fill:rgb(123,13,0);"/>
        </g>
        <g transform="matrix(1,0,0,1,0.920097,-0.363474)">
            <path d="M1344.89,1467.9L1344.99,1468.66C1354.99,1467.29 1364.27,1464.11 1373.23,1460.01L1373.01,1459.29C1363.64,1463.54 1354.75,1466.78 1344.89,1467.9Z" style="fill:rgb(123,13,0);"/>
        </g>
        <g transform="matrix(1,0,0,1,-7.25394,-28.4992)">
            <path d="M1344.89,1467.9L1344.99,1468.66C1354.99,1467.29 1364.3,1464.2 1373.25,1460.1L1373.25,1459.3C1363.88,1463.54 1354.75,1466.78 1344.89,1467.9Z" style="fill:rgb(123,13,0);"/>
        </g>
        <g transform="matrix(1,0,0,1,-11.3545,-43.013)">
            <path d="M1344.89,1467.9L1344.99,1468.66C1354.99,1467.29 1364.3,1464.2 1373.25,1460.1L1373.25,1459.3C1363.88,1463.54 1354.75,1466.78 1344.89,1467.9Z" style="fill:rgb(123,13,0);"/>
        </g>
        <g transform="matrix(1,0,0,1,-0.47031,-5.64911)">
            <path d="M1342.42,1458.77L1342.54,1459.72C1352.18,1457.8 1361.33,1454.62 1370.3,1450.78L1370.11,1449.91C1361.35,1453.81 1352.01,1457.2 1342.42,1458.77Z" style="fill:rgb(123,13,0);"/>
        </g>
        <path d="M1301.63,1411.42C1301.18,1414.8 1303.55,1426.23 1306.69,1428.76C1312.63,1428.98 1319.48,1428.37 1325.1,1426.92C1322.39,1423.67 1321.29,1414.18 1321.69,1409.92C1315.59,1410.87 1307.56,1411.3 1301.63,1411.42Z" style="fill:rgb(123,13,0);"/>
        <g transform="matrix(-0.717712,0.390293,0.477732,0.878506,1624.43,-353.244)">
            <path d="M1301.53,1411.46C1301.43,1415 1304.04,1425.56 1306.69,1428.76C1312.63,1428.98 1319.11,1429.08 1325.13,1427.95C1322.67,1424.69 1321.69,1415.05 1321.86,1410.79C1315.69,1411.7 1307.46,1411.35 1301.53,1411.46Z" style="fill:rgb(123,13,0);"/>
            <path d="M1326.25,1429.63C1326.44,1434.28 1327.39,1438.88 1330.11,1442.6C1327.13,1443.25 1313.79,1443.98 1310.96,1443.76C1308.48,1439.87 1306.69,1435.58 1306.27,1430.75C1311.41,1430.55 1318.6,1430.4 1326.25,1429.63Z" style="fill:rgb(123,13,0);"/>
            <path d="M1329.49,1444.33C1329.08,1449.37 1332.08,1453.7 1333.44,1456.17C1327.48,1457.41 1321.52,1457.59 1314.96,1457.86C1312.27,1454.54 1310.87,1449.23 1310.65,1445.52C1316.96,1445.98 1322.9,1445.11 1329.49,1444.33Z" style="fill:rgb(123,13,0);"/>
            <path d="M1315.43,1459.05C1319.06,1459 1324.7,1458.77 1333.13,1458.02C1332.94,1462.19 1335.05,1468.12 1337.08,1471.34C1330.01,1472.45 1324.57,1472.29 1318.92,1472.23C1317.1,1468 1314.5,1461.98 1315.43,1459.05Z" style="fill:rgb(123,13,0);"/>
            <g transform="matrix(1,5.55112e-17,0,1,0.455115,0.100973)">
                <path d="M1319.39,1473.51C1318.77,1477.42 1320.7,1481.54 1322.48,1484.84C1327.57,1484.74 1332.94,1485.65 1340.1,1483.62C1338.8,1482.36 1337.7,1479.04 1337.6,1472.7C1330.77,1473.26 1323.27,1473.61 1319.39,1473.51Z" style="fill:rgb(123,13,0);"/>
            </g>
        </g>
        <path d="M1325.38,1427.88C1325.57,1432.54 1327.1,1437.81 1329.82,1441.53C1323.67,1442.87 1316.56,1443.68 1311.07,1443.25C1307.94,1439.45 1307.11,1434.33 1306.69,1429.5C1312.75,1429.74 1318.93,1429 1325.38,1427.88Z" style="fill:rgb(123,13,0);"/>
        <path d="M1329.97,1442.58C1329.56,1447.63 1332.06,1453.37 1333.42,1455.84C1327.46,1457.08 1321.7,1457.83 1315.14,1458.11C1312.45,1454.78 1311.29,1448.05 1311.07,1444.34C1317.63,1444.51 1324,1443.57 1329.97,1442.58Z" style="fill:rgb(123,13,0);"/>
        <path d="M1315.4,1458.99C1321.59,1458.51 1327.33,1457.75 1333.42,1456.82C1333.23,1461 1334.45,1466.19 1336.48,1469.41C1329.44,1470.42 1324.05,1471.09 1318.32,1471.35C1316.36,1468.37 1314.44,1462.15 1315.4,1458.99Z" style="fill:rgb(123,13,0);"/>
        <path d="M1318.44,1472.31C1317.82,1476.21 1319.85,1482.99 1321.63,1486.3C1326.72,1486.19 1332.45,1485.05 1339.61,1483.02C1338.31,1481.76 1336.58,1476.67 1336.48,1470.33L1326.72,1471.72L1318.44,1472.31Z" style="fill:rgb(123,13,0);"/>
    </g>
    <g id="Layer5" transform="matrix(0.658364,0,0,0.658364,-139.311,-39.3713)">
        <path d="M606.142,294.554L627.333,323.847C631.82,331.672 632.801,337.729 632.663,343.222L625.654,447.802C654.25,466.346 694.554,459.431 737.026,447.802C730.828,451.449 724.029,455.153 723.961,456.357L1407.75,470.431C1137.28,477.212 939.434,491.107 824.355,513.11L512.891,510.919C511.286,509.107 510.464,506.372 510.105,503.093C508.354,505.167 506.126,506.937 503.148,508.229C498.836,488.901 503.347,468.905 510.363,447.802L515.27,455.093L629.453,456.789C615.799,448.683 602.413,440.297 594.427,423.773C602.377,425.313 607.202,423.25 605.847,414.065C605.62,376.839 605.158,341.502 606.142,294.554Z" style="fill:rgb(123,13,0);"/>
        <path d="M666.749,79.235C702.664,99.855 739.481,120.016 775.607,137.171L730.457,237.127C728.703,239.731 726.194,244.14 725.739,249.783C724.242,268.352 722.1,289.757 720.95,294.554C628.953,307.377 592.013,273.659 610.09,200.736L666.749,79.235Z" style="fill:rgb(123,13,0);"/>
        <path d="M501.182,452.096L504.715,437.784L505.289,433.688C500.627,441.08 500.8,446.628 501.182,452.096Z" style="fill:rgb(123,13,0);"/>
        <path d="M496.588,455.295C495.554,476.324 494.204,498.435 496.004,509.781C493.069,509.468 490.388,507.402 488.498,499.854L482.904,508.635C480.657,490.766 481.461,469.97 488.815,442.892L491.948,447.802L494.965,442.892L496.588,455.295Z" style="fill:rgb(123,13,0);"/>
        <path d="M480.195,452.06L483.112,439.435L482.904,433.688C480.778,439.633 480.487,445.793 480.195,452.06Z" style="fill:rgb(123,13,0);"/>
        <path d="M472.019,442.892L475.219,455.448C473.378,473.757 473.368,491.832 474.356,509.781L466.171,508.157C464.248,483.758 464.502,460.846 472.019,442.892Z" style="fill:rgb(123,13,0);"/>
        <path d="M466.171,450.139C462.88,472.449 462.22,491.286 462.995,508.229L452.361,507.458C451.68,489.258 452.366,470.836 455.01,452.096L458.782,454.545C462.186,453.717 464.394,451.892 466.171,450.139Z" style="fill:rgb(123,13,0);"/>
        <path d="M450.746,459.241C452.572,454.498 454.294,448.955 455.788,441.656L452.115,443.495C450.515,442.259 449.975,440.088 449.586,437.784C448.349,445.539 448.71,452.7 450.746,459.241Z" style="fill:rgb(123,13,0);"/>
        <path d="M429.958,448.513L442.785,448.513C452.477,465.33 452.97,486.744 442.619,513.577L427.234,513.157L423.119,502.123L368.237,499.36C365.785,485.607 366.209,472.633 370.153,454.908C390.508,451.855 408.251,449.865 424.424,448.513L424.047,453.377L424.632,459.241C425.67,454.888 427.307,451.166 429.958,448.513Z" style="fill:rgb(123,13,0);"/>
        <path d="M362.76,439.433L365.664,440.843L363.3,436.482L353.191,436.482L349.917,438.86L362.76,439.433Z" style="fill:rgb(123,13,0);"/>
        <path d="M349.917,440.843L346.092,444.773L363.037,444.911L360.346,440.843L349.917,440.843Z" style="fill:rgb(123,13,0);"/>
        <path d="M358.814,447.178L361.844,451.752L344.212,452.386L346.092,447.561L358.814,447.178Z" style="fill:rgb(123,13,0);"/>
        <path d="M342.119,460.769L346.092,454.364L356.695,454.494L361.844,459.241L363.037,463.858L365.664,459.241L365.664,500.956L359.739,497.693L359.968,461.689L342.119,460.769Z" style="fill:rgb(123,13,0);"/>
        <path d="M342.119,466.542L344.212,463.16L356.529,462.992L357.791,466.125L342.119,466.542Z" style="fill:rgb(123,13,0);"/>
        <path d="M342.119,472.381L353.891,472.241C354.734,471.186 355.606,469.735 356.178,467.994C356.85,468.007 357.396,468.427 357.791,469.336C356.941,471.409 355.482,473.34 353.875,474.766L344.212,475.077C342.714,474.103 342.223,473.224 342.119,472.381Z" style="fill:rgb(123,13,0);"/>
        <path d="M344.212,467.994L342.119,470.023L354.564,469.681L353.731,467.994L344.212,467.994Z" style="fill:rgb(123,13,0);"/>
        <path d="M343.241,484.726L352.88,484.945L353.891,482.102L342.119,482.079L343.241,484.726Z" style="fill:rgb(123,13,0);"/>
        <path d="M357.791,488.523L353.891,494.65L342.119,494.391L340.537,488.379L357.791,488.523Z" style="fill:rgb(123,13,0);"/>
        <path d="M340.341,498.826L344.846,503.49L354.564,503.316L357.791,498.913L340.341,498.826Z" style="fill:rgb(123,13,0);"/>
        <path d="M342.119,508.858L359.101,508.738L354.564,513.164L345.353,512.978L342.119,508.858Z" style="fill:rgb(123,13,0);"/>
        <path d="M342.119,517.047L345.84,521.059L357.791,520.093L359.101,516.807L342.119,517.047Z" style="fill:rgb(123,13,0);"/>
        <path d="M344.846,523.511L346.846,526.045L357.791,526.103L359.101,523.468L344.846,523.511Z" style="fill:rgb(123,13,0);"/>
        <path d="M341.8,458.039C339.735,472.644 339.913,485.166 340.449,496.767L286.068,495.034C285.73,482.731 286.387,471.171 288.803,460.416L341.8,458.039Z" style="fill:rgb(123,13,0);"/>
        <path d="M273.398,444.235C271.705,445.532 270.61,446.793 270.171,448.015L287.39,448.428C287.036,446.855 285.834,445.197 284.235,444.162L273.398,444.235Z" style="fill:rgb(123,13,0);"/>
        <path d="M276.658,441.344L276.004,442.99L287.39,442.868L287.372,441.157L276.658,441.344Z" style="fill:rgb(123,13,0);"/>
        <path d="M271.614,450.2C269.898,451.604 268.7,453.152 267.774,454.776L284.235,455.096C283.302,453.42 283.148,451.452 281.59,450.142L271.614,450.2Z" style="fill:rgb(123,13,0);"/>
        <path d="M270.171,458.039C268.264,459.571 266.979,461.179 265.954,462.819L268.804,463.441L266.483,465.738C266.588,466.566 266.995,467.229 267.766,467.693L276.492,467.745L277.858,466.039C279.175,465.41 280.42,464.616 281.59,463.658C281.038,461.527 280.031,459.699 278.771,458.039L270.171,458.039Z" style="fill:rgb(123,13,0);"/>
        <path d="M267.766,472.365L281.59,472.365C280.661,473.727 279.41,474.884 277.39,475.549C277.493,476.581 277.423,477.302 277.099,477.569C273.205,478.288 269.558,477.988 265.976,478.088L265.954,482.248L278.771,482.548C278.174,483.618 277.452,484.64 276.001,485.382C273.36,485.719 270.592,485.775 267.766,485.703C267.402,486.208 267.359,486.655 267.766,487.023C270.29,486.814 273.027,486.851 276.001,487.159C276.531,487.617 276.499,488.239 276.001,488.996L265.954,489.419C265,490.987 265.247,491.968 265.954,492.723L280.146,492.886C279.247,494.81 278.149,496.521 276.884,498.055C273.909,498.289 270.609,498.43 266.292,498.284C265.447,497.812 264.621,497.238 263.876,496.247L225.365,495.848C235.319,491.152 246.975,486.339 252.465,482.054C245.18,475.609 234.973,470.312 224.875,464.973C238.022,464.596 251.315,464.545 265.266,465.975C266.76,467.306 267.558,469.479 267.766,472.365Z" style="fill:rgb(123,13,0);"/>
        <path d="M265.954,502.336L281.59,502.417L278.78,506.967L267.766,506.75L265.954,502.336Z" style="fill:rgb(123,13,0);"/>
        <path d="M267.766,511.302L281.59,511.023L279.772,514.393L270.274,514.865L267.766,511.302Z" style="fill:rgb(123,13,0);"/>
        <path d="M272.647,519.403L282.53,519.087L281.59,520.954L274.678,521.099L272.647,519.403Z" style="fill:rgb(123,13,0);"/>
        <path d="M422.589,521.099L372.583,519.087L374.93,527.704L423.318,539.874L422.589,521.099Z" style="fill:rgb(123,13,0);"/>
        <path d="M289.293,510.941L331.975,513.48L332.148,519.619L292.606,516.418L289.293,510.941Z" style="fill:rgb(123,13,0);"/>
        <path d="M335.236,514.809L338.365,514.809C338.138,516.927 338.785,519.633 340.537,521.059L335.363,518.933C334.178,516.047 334.725,516.117 335.236,514.809Z" style="fill:rgb(123,13,0);"/>
        <path d="M211.602,512.049L265.266,512.053L262.844,512.944C247.924,513.011 232.758,513.279 216.179,512.944C214.408,512.808 213,512.431 211.602,512.049Z" style="fill:rgb(123,13,0);"/>
        <path d="M679.774,551.49L679.724,582.409C669.908,582.682 659.785,581.119 649.293,577.339L649.307,564.114C656.72,553.685 667.058,550.458 679.774,551.49Z" style="fill:rgb(123,13,0);"/>
        <path d="M679.774,594.65L679.774,633.227C671.315,633.012 659.71,633.631 648.888,631.707C649.458,629.778 648.436,627.92 644.267,626.203C646.746,609.852 657.909,599.18 679.774,594.65Z" style="fill:rgb(123,13,0);"/>
        <path d="M679.774,638.056L679.774,662.309C676.363,662.56 672.971,662.622 669.888,662.015C669.574,648.323 663.554,641.551 649.293,637.039C660.08,638.167 670.118,638.85 679.774,638.056Z" style="fill:rgb(123,13,0);"/>
        <path d="M716.124,601.644C715.909,611.375 716.046,621.255 716.375,631.217C718.339,631.802 720.309,630.465 721.667,629.523L720.961,605.449L719.904,608.634L718.663,609.87C716.56,609.017 716.702,604.566 716.124,601.644Z" style="fill:rgb(123,13,0);"/>
        <path d="M727.085,605.048L728.447,629.658C732.162,628.964 734.98,626.571 736.98,622.629C735.186,612.557 731.657,607.342 727.085,605.048Z" style="fill:rgb(123,13,0);"/>
        <path d="M717.66,568.457L717.423,579.695L719.543,579.472L719.904,566.874L717.66,568.457Z" style="fill:rgb(123,13,0);"/>
        <path d="M728.091,638.623L728.062,659.618C728.903,659.794 729.723,659.767 730.524,659.555L730.984,638.339C730.157,638.585 729.2,638.688 728.091,638.623Z" style="fill:rgb(123,13,0);"/>
        <path d="M732.032,659.208L732.032,638.339C732.807,638.333 733.454,638.191 734.07,638.017L733.88,658.849C733.895,658.916 733.351,659.285 732.032,659.208Z" style="fill:rgb(123,13,0);"/>
        <path d="M686.884,665.82L686.613,669.459L671.925,668.152L671.851,665.322L686.884,665.82Z" style="fill:rgb(123,13,0);"/>
        <path d="M671.851,670.776L671.851,693.666L686.884,694.52L686.884,670.959L671.851,670.776Z" style="fill:rgb(123,13,0);"/>
        <path d="M648.422,695.84L648.252,710.683C659.575,712.061 671.025,713.148 682.44,713.499L681.943,698.052C670.774,697.354 659.735,697.016 648.422,695.84Z" style="fill:rgb(123,13,0);"/>
        <path d="M640.081,711.37L639.029,712.44L638.53,730.525L640.291,731.049L641.614,732.278L643.573,732.882L645.43,732.903L648.09,733.949L650.129,734.744L651.971,734.584L651.958,717.344L649.36,716.931L649.062,714.247L646.162,716.122L644.661,716.282L643.961,712.765L640.763,715.344L640.081,711.37Z" style="fill:rgb(123,13,0);"/>
        <path d="M656.214,716.023L656.104,736.058L658.834,734.744L659.184,718.48L663.622,715.477L663.941,737.668L668.016,736.058L668.101,718.477L672.967,715.576L673.164,738.143L677.915,736.058L678.038,718.461L682.41,716.202L682.41,738.317L686.884,736.349L686.884,719.285L682.41,714.247L661.852,712.721L656.214,716.023Z" style="fill:rgb(123,13,0);"/>
        <path d="M692.659,715.546L693.233,739.11L697.413,736.258L696.941,719.33L692.659,715.546Z" style="fill:rgb(123,13,0);"/>
        <path d="M702.454,715.546L703.291,738.317L707.381,735.853L707.427,717.774L702.454,715.546Z" style="fill:rgb(123,13,0);"/>
        <path d="M712.104,715.546L712.315,737.289L716.272,734.085L715.836,718.04L712.104,715.546Z" style="fill:rgb(123,13,0);"/>
        <path d="M714.802,712.295L714.294,697.602C719.336,697.779 723.847,696.223 728.062,695.102C725.543,696.196 723.084,697.048 720.908,697.708C718.276,698.508 716.018,698.97 715.59,700.374L715.559,712.163L714.802,712.295Z" style="fill:rgb(123,13,0);"/>
        <path d="M700.773,676.457L700.902,689.301L702.454,689.445L702.454,676.603L700.773,676.457Z" style="fill:rgb(123,13,0);"/>
        <path d="M651.738,582.068C651.948,588.31 650.527,594.853 648.521,601.505C653.991,596.683 659.473,591.869 663.858,586.269C657.181,597.327 648.492,607.425 644.888,615.922L644.125,583.152C643.352,582.674 642.739,581.576 642.32,579.728C641.946,577.316 641.652,574.565 642.017,568.993C640.439,568.592 638.755,566.772 636.839,561.83C639.724,559.906 641.799,557.871 642.5,555.647C643.172,556.199 643.604,557.361 643.793,559.131C646.074,551.84 653.429,548.485 661.197,546.424C653.034,550.172 646.372,554.676 645.271,561.687L661.88,551.316L646.035,565.305C644.814,569.384 645.39,572.922 645.819,576.017C649.804,578.088 651.841,580.107 651.738,582.068Z" style="fill:rgb(123,13,0);"/>
        <path d="M1075.37,342.536C1075.1,344.003 1074.67,344.712 1075.89,346.148C1090.26,344.098 1101.41,340.214 1110.8,335.33C1111.41,335.019 1111.09,333.884 1110.13,332.184C1102.87,334.323 1089,337.013 1075.37,342.536Z" style="fill:rgb(123,13,0);"/>
        <path d="M1072.77,349.689C1071.59,352.178 1072.32,352.28 1072.88,352.63C1085.64,350.609 1098.55,346.919 1111.63,341.449L1110.8,338.558C1099.02,343.875 1087.03,346.985 1072.77,349.689Z" style="fill:rgb(123,13,0);"/>
        <path d="M1070.11,356.069C1069.61,356.91 1068.45,358.401 1069.46,359.379C1083.94,355.835 1098.01,351.948 1111.63,346.939C1112.43,345.961 1112.31,344.923 1111.63,343.634C1098.25,349.183 1084.84,353.14 1070.11,356.069Z" style="fill:rgb(123,13,0);"/>
        <path d="M1054.38,365.507C1052.43,367.386 1051.81,369.848 1052.27,372.794C1054.97,376.617 1058.06,379.555 1060.15,381.58C1057.4,376.974 1054.59,371.211 1054.38,365.507Z" style="fill:rgb(123,13,0);"/>
        <path d="M1050.62,365.395C1049.29,367.016 1048.25,369.529 1048.58,373.156C1051.14,378.112 1054.41,380.445 1057.56,383.184C1055.13,380.247 1052.91,377.033 1051.21,373.156C1050.59,370.787 1050.51,368.198 1050.62,365.395Z" style="fill:rgb(123,13,0);"/>
        <path d="M1046.11,368.283C1046.06,370.333 1045.97,372.358 1045.82,374.345C1045.06,372.631 1044.57,370.756 1044.3,368.748C1043.99,371.113 1043.82,373.472 1044.17,375.81C1046.34,380.502 1049.52,382.382 1053.07,383.184C1050.1,379.105 1047.51,374.548 1046.11,368.283Z" style="fill:rgb(123,13,0);"/>
        <path d="M1059.21,365.507C1057.13,366.857 1056.67,369.479 1057.56,373.156C1059.59,376.103 1061.67,377.953 1063.81,378.805C1066.35,379.568 1068.73,379.773 1070.98,379.155L1089.08,374.345L1080.27,374.345C1078.59,371.181 1078.16,366.97 1078.84,361.838L1076.79,365.507L1074.25,362.465C1074.03,364.768 1074.1,366.776 1074.66,368.283L1077.26,374.345C1075.31,374.467 1073.24,373.791 1070.98,371.763C1070.26,369.458 1070.36,366.738 1070.98,363.753L1067.35,368.283L1067.35,363.668L1065.19,365.395L1062.74,368.283L1059.21,365.507Z" style="fill:rgb(123,13,0);"/>
        <path d="M1185.91,424.365L1186.69,424.353L1186.79,418.787C1186.62,416.034 1185.86,415.153 1185.09,414.326C1186.21,417.065 1186.15,420.907 1185.91,424.365Z" style="fill:rgb(123,13,0);"/>
        <path d="M1081.91,360.156C1082.54,365.282 1083.71,369.677 1085.55,373.156C1086.76,373.063 1086.73,369.434 1086.43,365.507C1086.29,363.666 1086.39,361.851 1087.7,360.156L1087.69,357.591C1086.59,358.767 1084.84,359.279 1081.91,360.156Z" style="fill:rgb(123,13,0);"/>
        <path d="M1089.08,357.591C1091.01,363.666 1093.04,369.187 1095.53,371.918C1095.38,366.774 1096.28,360.759 1098.42,354.345C1099.99,359.859 1101.84,364.526 1104.41,368.283C1104.31,362.995 1105.48,356.919 1107.61,351.064C1109.17,356.893 1111.48,361.949 1113.89,365.507C1113.96,361.011 1114.4,355.256 1116.45,348.261L1112.84,348.274C1104.96,350.75 1097.08,353.924 1089.08,355.434L1089.08,357.591Z" style="fill:rgb(123,13,0);"/>
        <path d="M1118.92,348.261C1119.61,354.004 1121.06,358.273 1122.88,361.838C1122.87,357.586 1123.63,352.349 1125.15,346.148C1122.16,345.982 1119.74,346.362 1118.92,348.261Z" style="fill:rgb(123,13,0);"/>
        <path d="M1128.33,343.415C1130.23,350.273 1131.88,357.885 1132.72,359.307C1133.49,357.241 1134.13,354.7 1134.24,350.129C1132.62,347.182 1130.51,345.222 1128.33,343.415Z" style="fill:rgb(123,13,0);"/>
        <path d="M1138.06,341.106C1139.65,346.947 1140.89,352.322 1142.8,355.439C1143.67,353.056 1143.8,349.202 1143.55,345.162C1141.18,343.119 1140.23,341.475 1138.06,341.106Z" style="fill:rgb(123,13,0);"/>
        <path d="M1147.18,337.798L1152.04,352.668C1152.91,350.029 1153.95,347.835 1154.12,343.415C1151.96,340.193 1149.57,339.011 1147.18,337.798Z" style="fill:rgb(123,13,0);"/>
        <path d="M1158.02,335.267L1161.46,347.63C1162.15,345.131 1162.89,342.684 1162.6,339.179C1160.99,336.945 1159.49,335.914 1158.02,335.267Z" style="fill:rgb(123,13,0);"/>
        <path d="M1179.74,333.332L1180.36,340.971C1181.17,338.9 1181.78,336.763 1181.78,334.416C1180.96,333.531 1180.29,333.201 1179.74,333.332Z" style="fill:rgb(123,13,0);"/>
        <path d="M1147.18,371L1160.34,403.975C1156.91,392.208 1153.64,380.784 1149.59,367.755C1149.91,366.411 1150.79,366.351 1151.79,366.592L1163.53,404.796C1166.26,413.001 1167.49,419.602 1167.31,424.984L1171.91,425.127L1171.88,420.977C1164.5,396.85 1157.66,379.147 1150.65,359.307L1150.65,363.003L1148.43,363.952L1147.18,365.061C1146.03,367.019 1145.96,368.998 1147.18,371Z" style="fill:rgb(123,13,0);"/>
        <path d="M1177.69,423.729C1178.04,422.927 1179.78,422.644 1181.78,422.459C1182.98,423.513 1183.11,424.324 1182.97,425.076L1177.33,425.076C1177.21,424.81 1177.33,424.361 1177.69,423.729Z" style="fill:rgb(123,13,0);"/>
        <path d="M1057.19,432.546C1056.39,432.162 1056.37,433.057 1056.79,433.426C1070.22,445.099 1085.87,449.98 1112.69,449.76C1113.16,449.585 1113.49,449.033 1113.26,448.472C1090.76,448.863 1071.74,444.023 1057.19,432.546Z" style="fill:rgb(123,13,0);"/>
        <path d="M1156.35,429.747L1147.82,429.706L1147.84,425.127L1155.25,425.127C1162.38,416.483 1159.1,409.998 1150.99,405.228L1151.4,404.796C1158.21,409.408 1163.8,414.516 1156.09,425.076L1156.35,429.747Z" style="fill:rgb(123,13,0);"/>
        <path d="M1102.29,372.04L1110.08,392.191C1108.55,386.746 1107.16,381.278 1106.31,375.723C1105.42,373.708 1103.89,372.807 1102.29,372.04Z" style="fill:rgb(123,13,0);"/>
        <path d="M1106.92,373.174C1107.02,372.036 1107.59,371.854 1108.33,372.04C1113.26,385.596 1117.45,400.109 1122.89,412.929C1123.2,415.725 1123.57,417.09 1123.39,418.673L1106.92,373.174Z" style="fill:rgb(123,13,0);"/>
        <path d="M1140.04,431.042L1140.01,433.964L1146.95,434.1C1146.12,432.877 1145.07,431.824 1143.58,431.095C1142.14,430.952 1141.06,430.979 1140.04,431.042Z" style="fill:rgb(123,13,0);"/>
        <path d="M1129.66,382.97C1127.83,384.157 1126.42,385.536 1127.18,387.938L1130.21,391.458C1127.61,394.102 1127.5,395.979 1127.86,397.165C1123.14,394.481 1120.89,388.851 1120.71,382.943L1129.66,382.97Z" style="fill:rgb(123,13,0);"/>
        <path d="M1139.62,398.1C1139.48,398.558 1139.65,398.785 1140.14,398.781C1153.31,389.029 1149.44,376.356 1138.02,372.04C1137.58,372.316 1137.48,372.612 1137.8,372.931C1144.26,374.174 1155.34,386.305 1139.62,398.1Z" style="fill:rgb(123,13,0);"/>
        <path d="M1519.17,452.516L1519.17,516.182C1526.02,514.228 1534.25,513.332 1528.31,501.576C1520.09,490.47 1519.72,487.689 1529.5,471.974C1534.38,465.527 1522.33,457.141 1519.17,452.516Z" style="fill:rgb(123,13,0);"/>
        <path d="M1508.94,468.446C1506.12,469.417 1508.46,469.672 1510.37,470.422C1512.33,471.094 1515.69,474.303 1515.35,474.398C1515.34,472.816 1515.44,469.611 1515.43,467.065C1514.71,466.982 1513.76,467.012 1513.31,467.127C1511.35,467.628 1509.98,468.088 1508.94,468.446Z" style="fill:rgb(123,13,0);"/>
        <path d="M1518.61,544.985C1517.81,550.135 1518,554.613 1519.17,558.42C1517.75,556.918 1515.54,555.813 1511.58,555.585L1377.57,555.477C1378.69,553.827 1358.5,550.133 1340.26,549.973L1512.43,549.09C1515.82,549.069 1517.59,547.402 1518.61,544.985Z" style="fill:rgb(123,13,0);"/>
        <path d="M1264.8,584.065C1273.27,634.978 1283.54,689.087 1294.49,737.397C1293.94,743.488 1281.6,751.385 1271.98,751.094C1258.06,691.497 1244.4,630.545 1230.77,569.453C1227.43,558.489 1262.1,567.817 1264.8,584.065Z" style="fill:rgb(123,13,0);"/>
        <path d="M1156.68,551.858L1170.63,608.62C1174.42,612.927 1180.66,612.673 1187.32,612.555L1206.89,763.857C1209.63,765.74 1229.66,765.487 1230.77,759.797L1191.03,611.039C1191.52,608.814 1192.51,607.227 1191.8,603.743L1178,545.297C1174.92,538.971 1159.77,545.282 1156.68,551.858Z" style="fill:rgb(123,13,0);"/>
        <path d="M1143.76,553.251C1139.47,555.86 1137.24,559.696 1136.3,562.558L1187.51,765.363C1191.29,766.805 1196.57,768.157 1200.47,767.04C1198.49,766.312 1196.14,765.959 1195.6,764.201C1198.79,765.835 1200.93,765.418 1202.73,765.643L1158.63,614.292C1162.11,615.326 1163.96,614.904 1165.18,613.923L1151.38,554.659C1151.42,550.965 1156.19,548 1162.67,545.297C1161.88,544.99 1161.01,544.786 1159.72,545.297C1154.14,547.43 1148.58,549.625 1143.76,553.251Z" style="fill:rgb(123,13,0);"/>
        <path d="M1228.38,553.774L1233.39,555.585L1224.95,550.703C1224.95,550.703 1224.79,549.92 1226.21,549.753C1236.56,548.534 1272.18,549.501 1309.59,549.168L1317.1,549.291L1227.65,547.831C1222.26,547.74 1221.68,549.31 1223.95,551.858L1228.38,553.774Z" style="fill:rgb(123,13,0);"/>
        <path d="M1533.42,546.459C1527.32,547.03 1524.33,549.456 1523.07,552.916C1523.12,553.87 1523.73,553.849 1524.91,552.851C1524.68,551.413 1527.38,548.807 1530.14,548.597C1548.4,547.207 1604,550.321 1602.02,549.208C1615.97,550.701 1623.62,556.288 1625.55,563.454L1666.12,563.735C1668.85,562.194 1668.58,557.132 1667.61,554.698C1668.63,556.783 1670.23,560.049 1674.38,559.26C1785.88,555.71 1895.85,550.268 2005.94,544.985C1984.9,542.426 1962.43,540.301 1931.35,540.788C1784.72,543.611 1652.79,550.242 1533.42,546.459Z" style="fill:rgb(123,13,0);"/>
        <path d="M2205.51,544.985C2202.34,549.467 2207.93,553.065 2212.91,552.226C2233.25,550.968 2248.93,543.951 2262.58,533.134C2264.03,530.729 2264.37,528.003 2264.66,525.381C2267.54,499.193 2265.14,471.111 2263.59,446.175C2263.35,443.945 2262.13,442.95 2260.66,442.295L2258.95,444.628C2251.87,440.375 2243.58,439.036 2235.37,437.486C2251.33,442.753 2262.68,447.864 2260.53,452.516C2262.88,460.545 2262.56,468.892 2260.3,477.137L2253.53,481.099C2256.32,483.02 2258.79,485.884 2260.09,488.527C2261.55,493.796 2262.56,501.679 2261.13,506.112C2259.74,510.397 2257.37,511.619 2256.2,512.154C2255.12,512.642 2256.16,513.685 2256.28,513.783C2257.9,513.754 2259.8,513.162 2261.88,512.211C2262.76,520.729 2261.61,526.487 2258.55,527.85C2242.43,535.699 2225.49,542.431 2205.51,544.985Z" style="fill:rgb(123,13,0);"/>
        <path d="M2286.32,455.945C2287.23,462.559 2286.95,469.521 2286.78,477.107L2266.01,477.273L2264.99,456.083L2286.32,455.945Z" style="fill:rgb(123,13,0);"/>
        <path d="M2266.01,525.011C2265.04,525.425 2265.17,525.895 2266.01,526.399C2266.82,526.373 2267.62,526.355 2268.42,526.343C2273.13,526.274 2277.67,526.441 2282.13,526.741L2275.28,528.569L2268.53,529.67L2285.22,529.919C2285.06,528.483 2285.44,526.795 2285.06,524.84L2266.01,525.011Z" style="fill:rgb(123,13,0);"/>
        <path d="M2294.64,452.516C2294.4,453.375 2294.08,454.336 2293.4,455.67C2291.07,460.154 2290.63,465.753 2290.85,466.304C2295.11,476.773 2298.27,474.974 2298.87,476.783C2295,481.713 2292.67,485.699 2291.33,488.986C2293.57,498.827 2296.83,501.15 2298.06,504.358C2294.1,503.269 2291.59,503.195 2289.52,503.422L2288.69,467.039C2290.07,461.409 2292,456.508 2294.64,452.516Z" style="fill:rgb(123,13,0);"/>
        <path d="M2241.73,481.673L2218.82,481.595C2209.83,481.351 2207.11,477.386 2203.74,472.873C2207.43,476.19 2210.67,478.615 2215.14,479.258C2216.91,479.511 2231.61,479.867 2241.56,479.124C2242.21,479.382 2242.26,481.507 2241.73,481.673Z" style="fill:rgb(123,13,0);"/>
        <path d="M2401.02,455.222C2400.48,455.015 2398.69,454.647 2396.57,455.874C2409.59,461.605 2415.73,493.09 2406.3,515.445C2407.9,514.199 2411.57,512.991 2412.73,510.89C2412.72,512.959 2412.46,514.9 2411.9,516.688C2434.1,491.979 2412.33,459.505 2401.02,455.222Z" style="fill:rgb(123,13,0);"/>
        <path d="M2289.52,534.639L2289.86,535.703C2327.26,534.4 2364.57,532.571 2401.73,529.905L2402.38,528.821C2365.21,531.524 2328.67,534.269 2289.52,534.639Z" style="fill:rgb(123,13,0);"/>
        <path d="M2407.54,493.875C2402.5,496.849 2397.99,500.837 2394.82,505.36C2398.55,506.042 2402.13,505.953 2405.64,505.533C2406.08,505.48 2406.49,505.003 2406.93,504.941C2408.45,501.712 2409.49,498.428 2407.54,493.875Z" style="fill:rgb(123,13,0);"/>
        <path d="M695.321,447.802C696.053,437.292 704.129,430.613 710.464,422.723C716.951,414.642 724.214,407.206 731.499,399.849C735.872,395.433 739.765,389.653 745.452,387.035C755.941,382.208 759.671,382.027 768.941,376.879C775.94,372.993 788.279,365.695 794.192,360.281C795.716,358.886 797.173,357.417 798.695,356.02C798.873,355.857 799.95,354.706 800.161,354.782C803.259,355.895 793.024,364.993 793.987,365.075C796.184,365.261 803.41,360.447 805.283,359.482C811.022,356.524 813.905,351.995 817.94,347.15C819.696,345.041 820.865,344.486 822.803,342.539C822.934,342.408 824.723,340.589 824.808,340.904C825.985,345.28 820.909,350.323 819.672,353.138C818.132,356.643 810.639,362.847 807.661,365.813C806.57,366.9 802.109,370.755 790.181,378.574C779.042,385.876 768.564,394.131 765.087,396.55C756.531,402.502 708.427,438.818 695.321,447.802Z" style="fill:rgb(123,13,0);"/>
        <path d="M825.309,337.013C829.169,331.446 833.49,326.082 836.552,320.007C838.114,316.909 838.12,312.951 840.038,310.129C841.692,307.696 845.361,305.65 848.33,307.138C849.248,307.598 849.383,309.021 849.239,309.899C848.847,312.286 847.07,314.414 845.57,316.22C839.256,323.818 832.557,330.324 825.309,337.013Z" style="fill:rgb(123,13,0);"/>
        <path d="M2257.9,451.759C2260.38,453.308 2261.6,456.025 2259.34,459.123C2254.52,461.161 2248.62,462.3 2241.33,463.089C2053.66,469.614 1860.01,469.316 1661.62,463.605C1620.87,465.698 1577.14,466.234 1531.76,465.911C1528.58,461.384 1523.95,456.441 1519.33,451.424L1519.56,429.368C1519.56,429.368 1529.25,430.523 1530.53,432.243C1575.57,432.573 1619.65,432.128 1660.87,429.372C1686.49,429.303 1714.61,429.114 1746.05,431.222C1875.66,439.912 2036.31,441.257 2178.94,430.568C2202.24,430.987 2238.09,437.597 2257.9,451.759Z" style="fill:rgb(123,13,0);"/>
        <path d="M1517.47,429.334L1516.92,461.629L1011.28,457.06L816.42,455.174C935.133,449.872 1036.16,437.581 960.249,426.561L1049,426.858C1064.77,467.481 1209.16,452.618 1214.64,429.334L1517.47,429.334Z" style="fill:rgb(123,13,0);"/>
        <path d="M2293.22,493.078L2402.31,493.86L2391.1,502.715L2299.38,503.755C2297.05,500.839 2294.91,497.484 2293.22,493.078Z" style="fill:rgb(123,13,0);"/>
        <path d="M2298.18,507.446C2295.33,509.876 2294.31,511.35 2294.37,512.258L2402.31,510.633L2392.1,506.215C2362.01,505.555 2330.88,505.81 2298.18,507.446Z" style="fill:rgb(123,13,0);"/>
        <path d="M2407.31,490.253L2392.97,480.972L2406.82,472.081C2409.15,477.353 2410.24,489.537 2407.31,490.253Z" style="fill:rgb(123,13,0);"/>
        <path d="M2406.3,468.655L2391.18,477.906L2300.94,475.867C2296.08,473.837 2293.13,469.951 2291.79,464.709L2406.3,468.655Z" style="fill:rgb(123,13,0);"/>
        <path d="M2296.02,451.065C2294.96,451.588 2295.27,452.31 2296.51,453.168L2389.14,458.446L2402.31,466.716C2403.15,466.548 2403.24,465.937 2402.31,464.709L2388.84,456.279L2296.02,451.065Z" style="fill:rgb(123,13,0);"/>
        <g transform="matrix(1.51892,0,0,1.51892,-760.615,-1298.53)">
            <path d="M926.046,894.276L925.563,895.201C987.602,936.909 1055.04,966.406 1128.1,983.18L1128.42,981.946C1056.95,966.552 990.151,935.069 926.046,894.276Z" style="fill:rgb(123,13,0);"/>
        </g>
    </g>
</svg>
